<?xml version="1.0" encoding="UTF-8"?> <svg xmlns="http://www.w3.org/2000/svg" xmlns:xlink="http://www.w3.org/1999/xlink" width="400px" height="75px" viewBox="0 0 400 75"> <!-- Generator: Sketch 53.2 (72643) - https://sketchapp.com --> <title>leadex logo@3x</title> <desc>Created with Sketch.</desc> <g id="Page-1" stroke="none" stroke-width="1" fill="none" fill-rule="evenodd"> <g id="leadex-logo"> <circle id="Oval" fill="#656565" cx="362.5" cy="37.5" r="37.5"></circle> <path d="M18.3201023,20.0506545 L4.63198698,57.3790552 L0,57.3790552 L16.1228777,15.6385885 L20.8736336,15.6385885 L37.2934336,57.3790552 L32.1269866,57.3790552 L18.3201023,20.0506545 Z M105.169858,57.3790552 L100.894178,57.3790552 L100.894178,21.8212863 L100.597256,22.6050085 L76.9622451,57.3790552 L72.6865648,57.3790552 L72.6865648,15.6385885 L76.9622451,15.6385885 L76.9622451,51.1963574 L77.2591674,50.4126352 L100.894178,15.6385885 L105.169858,15.6385885 L105.169858,57.3790552 Z M140.741143,53.6346044 L143.561904,53.6346044 L158.467401,15.6385885 L163.218156,15.6385885 L177.9455,53.6346044 L180.914722,53.6346044 L180.914722,66 L176.639042,66 L176.639042,57.3790552 L144.957439,57.3790552 L144.957439,66 L140.741143,66 L140.741143,53.6346044 Z M173.313513,53.6346044 L160.842779,20.457029 L148.253275,53.6346044 L173.313513,53.6346044 Z M216.575083,57.3790552 L216.575083,15.6385885 L239.942864,15.6385885 L239.942864,19.4410928 L220.850764,19.4410928 L220.850764,34.0705748 L239.289635,34.0705748 L239.289635,37.8730791 L220.850764,37.8730791 L220.850764,53.5765509 L239.942864,53.5765509 L239.942864,57.3790552 L216.575083,57.3790552 Z M282.402744,35.7250996 L301.257307,15.6385885 L306.483138,15.6385885 L287.95519,35.6089926 L307.759904,57.3790552 L302.296535,57.3790552 L282.402744,35.7250996 Z M282.224591,15.6385885 L282.224591,57.3790552 L277.948911,57.3790552 L277.948911,15.6385885 L282.224591,15.6385885 Z M382.881231,26.3494593 L378.130475,26.3494593 C376.90319,24.7433044 375.735308,23.5338686 374.626793,22.7211155 C373.0432,21.5213372 371.261684,20.5924905 369.282192,19.9345475 C367.322496,19.2959558 365.333137,18.9766648 363.314055,18.9766648 C360.146869,18.9766648 357.182625,19.7748924 354.421234,21.3713717 C351.659844,22.9678509 349.462641,25.1061334 347.82956,27.7862834 C346.19648,30.4664334 345.379952,33.3545662 345.379952,36.4507684 C345.379952,39.5663218 346.211326,42.4883187 347.874099,45.2168469 C349.517077,47.9260238 351.724177,50.0836573 354.495465,51.6898122 C357.286548,53.2959671 360.285432,54.0990324 363.492209,54.0990324 C366.263497,54.0990324 368.955565,53.4507748 371.568494,52.1542402 C372.993728,51.4382434 374.146764,50.7125819 375.027638,49.9772339 C375.908512,49.2418859 376.992267,48.0808275 378.278936,46.4940239 L383,46.4940239 C382.089434,48.042125 381.317444,49.2031834 380.684007,49.9772339 C380.050569,50.7512845 379.229093,51.5930518 378.219552,52.5025612 C373.844876,56.2180038 368.876426,58.0756972 363.314055,58.0756972 C359.256098,58.0756972 355.524812,57.117824 352.120087,55.2020489 C348.715361,53.2862739 346.028242,50.664217 344.058648,47.3357997 C342.089054,44.0073823 341.104272,40.3790748 341.104272,36.4507684 C341.104272,32.5418131 342.089054,28.9425321 344.058648,25.6528173 C346.028242,22.3631025 348.710413,19.7652343 352.105241,17.8591349 C355.500069,15.9530354 359.216508,15 363.254671,15 C367.708527,15 371.776321,16.1417074 375.458175,18.4251565 C377.695,19.8958525 379.526003,21.5019833 380.951237,23.243597 C381.644059,24.0757014 382.287384,25.1109784 382.881231,26.3494593 Z" id="ЛИДЕКС" fill="#8D8D8D" fill-rule="nonzero"></path> </g> </g> </svg> 